Normalized EMG Linear Envelopes
nRows=129
nColumns=4

endheader
time	 med_gas_r	  soleus_r	 tib_ant_r	
2.06237	  0.095083	  0.098140	  0.038859	
2.12486	  0.097053	  0.101021	  0.042801	
2.18736	  0.097404	  0.102124	  0.045619	
2.24986	  0.096634	  0.099951	  0.047192	
2.31235	  0.095876	  0.095426	  0.047664	
2.37485	  0.095616	  0.091626	  0.046704	
2.43734	  0.095946	  0.090276	  0.044448	
2.49984	  0.096322	  0.090873	  0.042236	
2.56234	  0.095849	  0.092889	  0.041529	
2.62483	  0.094409	  0.096009	  0.042670	
2.68733	  0.092755	  0.099381	  0.045051	
2.74982	  0.091910	  0.102548	  0.047793	
2.81232	  0.092850	  0.105890	  0.050005	
2.87482	  0.095798	  0.109369	  0.051039	
2.93731	  0.099483	  0.111310	  0.050744	
2.99981	  0.101926	  0.109325	  0.049493	
3.0623	  0.102045	  0.103464	  0.047951	
3.1248	  0.100372	  0.097332	  0.046647	
3.1873	  0.098388	  0.094853	  0.045916	
3.24979	  0.097056	  0.096662	  0.046076	
3.31229	  0.096256	  0.100017	  0.047205	
3.37478	  0.095441	  0.101809	  0.048819	
3.43728	  0.094477	  0.101418	  0.050030	
3.49978	  0.094247	  0.100287	  0.050357	
3.56227	  0.095740	  0.099201	  0.050278	
3.62477	  0.098262	  0.097135	  0.050455	
3.68726	  0.100104	  0.093339	  0.050931	
3.74976	  0.100726	  0.089477	  0.051475	
3.81226	  0.100753	  0.088120	  0.051808	
3.87475	  0.100547	  0.089891	  0.051609	
3.93725	  0.099816	  0.093362	  0.050884	
3.99974	  0.098234	  0.096742	  0.049898	
4.06224	  0.096118	  0.099006	  0.048838	
4.12474	  0.094416	  0.100130	  0.047861	
4.18723	  0.094085	  0.100611	  0.047172	
4.24973	  0.095565	  0.101077	  0.047298	
4.31222	  0.098462	  0.102949	  0.049905	
4.37472	  0.101717	  0.108533	  0.058352	
4.43722	  0.104349	  0.118523	  0.076749	
4.49971	  0.106043	  0.129753	  0.108264	
4.56221	  0.107668	  0.136615	  0.154990	
4.6247	  0.111603	  0.134902	  0.219260	
4.6872	  0.120909	  0.126075	  0.303167	
4.7497	  0.137285	  0.118271	  0.402387	
4.81219	  0.158270	  0.119923	  0.497178	
4.87469	  0.176882	  0.131675	  0.556405	
4.93718	  0.187581	  0.146627	  0.560943	
4.99968	  0.192594	  0.157672	  0.523224	
5.06218	  0.198479	  0.162985	  0.477869	
5.12467	  0.208054	  0.165299	  0.452004	
5.18717	  0.220125	  0.167175	  0.449862	
5.24966	  0.234446	  0.167953	  0.464211	
5.31216	  0.252766	  0.165718	  0.488230	
5.37466	  0.275146	  0.160462	  0.513677	
5.43715	  0.296170	  0.153971	  0.530184	
5.49965	  0.308193	  0.148390	  0.532871	
5.56214	  0.310568	  0.145866	  0.527257	
5.62464	  0.310902	  0.147981	  0.519592	
5.68714	  0.316207	  0.154826	  0.507848	
5.74963	  0.327909	  0.164873	  0.492692	
5.81213	  0.343806	  0.175375	  0.485893	
5.87462	  0.360333	  0.183622	  0.499136	
5.93712	  0.376968	  0.188907	  0.532882	
5.99962	  0.399573	  0.192306	  0.574867	
6.06211	  0.430924	  0.194694	  0.606360	
6.12461	  0.460915	  0.196929	  0.616222	
6.1871	  0.477270	  0.200683	  0.609033	
6.2496	  0.481750	  0.207066	  0.596042	
6.3121	  0.487304	  0.215347	  0.583474	
6.37459	  0.502347	  0.222873	  0.573063	
6.43709	  0.524465	  0.226690	  0.566578	
6.49958	  0.547529	  0.226823	  0.567018	
6.56208	  0.567707	  0.226065	  0.579105	
6.62458	  0.584378	  0.226847	  0.608103	
6.68707	  0.597516	  0.230724	  0.655875	
6.74957	  0.601912	  0.238019	  0.711132	
6.81206	  0.591583	  0.246866	  0.742661	
6.87456	  0.571656	  0.255278	  0.722456	
6.93706	  0.555091	  0.262640	  0.661449	
6.99955	  0.549979	  0.268987	  0.600653	
7.06205	  0.556283	  0.275843	  0.566551	
7.12454	  0.569400	  0.285239	  0.555205	
7.18704	  0.584292	  0.295799	  0.554277	
7.24954	  0.597793	  0.304239	  0.559848	
7.31203	  0.606870	  0.309677	  0.573391	
7.37453	  0.607428	  0.310787	  0.594643	
7.43702	  0.597446	  0.303767	  0.617958	
7.49952	  0.579945	  0.289134	  0.633277	
7.56202	  0.560622	  0.274596	  0.629546	
7.62451	  0.543676	  0.268617	  0.599131	
7.68701	  0.532506	  0.275015	  0.548626	
7.7495	  0.529739	  0.291261	  0.502777	
7.812	  0.532500	  0.308693	  0.483734	
7.8745	  0.533643	  0.316438	  0.491160	
7.93699	  0.529297	  0.308529	  0.509621	
7.99949	  0.520492	  0.289818	  0.521847	
8.06198	  0.509112	  0.274206	  0.513970	
8.12448	  0.498546	  0.273587	  0.486416	
8.18698	  0.496754	  0.286365	  0.459389	
8.24947	  0.510379	  0.299592	  0.454060	
8.31197	  0.536036	  0.305135	  0.468700	
8.37446	  0.559141	  0.306913	  0.479745	
8.43696	  0.560011	  0.309677	  0.468893	
8.49946	  0.530644	  0.310937	  0.445591	
8.56195	  0.487971	  0.306178	  0.433185	
8.62445	  0.458794	  0.296181	  0.438623	
8.68694	  0.452788	  0.288184	  0.452618	
8.74944	  0.457454	  0.289324	  0.468125	
8.81194	  0.455510	  0.299593	  0.477868	
8.87443	  0.442326	  0.311804	  0.468466	
8.93693	  0.427975	  0.316822	  0.437057	
8.99942	  0.427111	  0.310812	  0.403104	
9.06192	  0.445370	  0.297942	  0.392272	
9.12442	  0.473129	  0.284563	  0.414212	
9.18691	  0.497165	  0.274638	  0.454692	
9.24941	  0.512948	  0.270331	  0.485069	
9.3119	  0.520341	  0.270598	  0.488357	
9.3744	  0.519329	  0.271992	  0.475369	
9.4369	  0.511882	  0.275716	  0.465755	
9.49939	  0.500680	  0.287752	  0.463298	
9.56189	  0.488012	  0.309984	  0.459055	
9.62438	  0.476128	  0.337843	  0.448267	
9.68688	  0.468181	  0.365699	  0.437393	
9.74938	  0.468908	  0.390595	  0.437763	
9.81187	  0.480249	  0.410860	  0.454568	
9.87437	  0.497896	  0.420815	  0.482841	
9.93686	  0.515666	  0.411530	  0.514164	
9.99936	  0.530859	  0.380357	  0.544588	
10.0619	  0.544220	  0.335494	  0.574316	
